<?xml version="1.0" encoding="UTF-8" standalone="no"?>
<svg
   xmlns:dc="http://purl.org/dc/elements/1.1/"
   xmlns:cc="http://creativecommons.org/ns#"
   xmlns:rdf="http://www.w3.org/1999/02/22-rdf-syntax-ns#"
   xmlns:svg="http://www.w3.org/2000/svg"
   xmlns="http://www.w3.org/2000/svg"
   xmlns:sodipodi="http://sodipodi.sourceforge.net/DTD/sodipodi-0.dtd"
   xmlns:inkscape="http://www.inkscape.org/namespaces/inkscape"
   viewBox="0 0 247 108"
   height="108"
   width="247"
   xml:space="preserve"
   version="1.1"
   id="svg2"
   inkscape:version="0.91 r13725"
   sodipodi:docname="car.svg"><sodipodi:namedview
     pagecolor="#ffffff"
     bordercolor="#666666"
     borderopacity="1"
     objecttolerance="10"
     gridtolerance="10"
     guidetolerance="10"
     inkscape:pageopacity="0"
     inkscape:pageshadow="2"
     inkscape:window-width="1855"
     inkscape:window-height="1056"
     id="namedview115"
     showgrid="false"
     inkscape:zoom="3.2490396"
     inkscape:cx="117.84617"
     inkscape:cy="135.30626"
     inkscape:window-x="65"
     inkscape:window-y="24"
     inkscape:window-maximized="1"
     inkscape:current-layer="g278" /><metadata
     id="metadata8"><rdf:RDF><cc:Work
         rdf:about=""><dc:format>image/svg+xml</dc:format><dc:type
           rdf:resource="http://purl.org/dc/dcmitype/StillImage" /><dc:title></dc:title></cc:Work></rdf:RDF></metadata><defs
     id="defs6"><clipPath
       id="clipPath16"
       clipPathUnits="userSpaceOnUse"><path
         id="path18"
         d="m 0.002,0 499.999,0 0,500 -499.999,0 0,-500 z"
         inkscape:connector-curvature="0" /></clipPath><radialGradient
       id="radialGradient24"
       spreadMethod="pad"
       gradientTransform="matrix(419.66931,0,0,-419.66931,250.00098,250)"
       gradientUnits="userSpaceOnUse"
       r="1"
       cy="0"
       cx="0"
       fy="0"
       fx="0"><stop
         id="stop26"
         offset="0"
         style="stop-opacity:1;stop-color:#ffffff" /><stop
         id="stop28"
         offset="0.75314615"
         style="stop-opacity:1;stop-color:#ffffff" /><stop
         id="stop30"
         offset="1"
         style="stop-opacity:1;stop-color:#eaeaea" /></radialGradient><clipPath
       id="clipPath38"
       clipPathUnits="userSpaceOnUse"><path
         id="path40"
         d="M 0,500 500,500 500,0 0,0 0,500 Z"
         inkscape:connector-curvature="0" /></clipPath><clipPath
       id="clipPath50"
       clipPathUnits="userSpaceOnUse"><path
         id="path52"
         d="m 42.274,386.608 c -1.275,-2.137 -2.186,-4.739 -2.534,-7.939 l 0,0 c 0,0 -2.084,-1.167 -2.084,-3 l 0,0 c 0,-1.833 0.166,-8.167 2.25,-12.917 l 0,0 173.458,0 8.876,8.209 c 0,0 0.811,1.75 0.875,3.375 l 0,0 c 0.062,1.625 -0.126,5.875 -0.376,6.313 l 0,0 c -0.25,0.437 -1.812,1.999 -3.937,3.25 l 0,0 c 0,0 0.17,1.086 0.195,2.709 l 0,0 -176.723,0 z"
         inkscape:connector-curvature="0" /></clipPath><linearGradient
       id="linearGradient58"
       spreadMethod="pad"
       gradientTransform="matrix(-1.2e-6,-26.792023,-26.792023,1.2e-6,130.39111,391.08594)"
       gradientUnits="userSpaceOnUse"
       y2="0"
       x2="1"
       y1="0"
       x1="0"><stop
         id="stop60"
         offset="0"
         style="stop-opacity:1;stop-color:#ffd42b" /><stop
         id="stop62"
         offset="1"
         style="stop-opacity:1;stop-color:#ffba00" /></linearGradient><clipPath
       id="clipPath70"
       clipPathUnits="userSpaceOnUse"><path
         id="path72"
         d="M 0,500 500,500 500,0 0,0 0,500 Z"
         inkscape:connector-curvature="0" /></clipPath><clipPath
       id="clipPath150"
       clipPathUnits="userSpaceOnUse"><path
         id="path152"
         d="m 282.416,382.964 c -0.002,-0.014 -0.008,-0.033 -0.01,-0.046 l 0,0 c -0.418,-2.083 -5.667,-3.166 -5.667,-4.416 l 0,0 c 0,-1.25 -0.083,-12.833 0,-13.75 l 0,0 c 0.083,-0.916 5.5,-4.25 8.667,-4.25 l 0,0 35.416,0 132.834,0 c 5.332,0 16.146,2.396 17.521,3.084 l 0,0 c 1.374,0.687 6.75,5.562 7.313,6.875 l 0,0 c 0.562,1.313 1.061,8.938 0.936,11.438 l 0,0 c -0.125,2.499 -1.125,2.687 -3.124,3.937 l 0,0 c -1.991,1.245 -2.002,1.625 -4.718,5.948 l 0,0 -189.168,-8.82 z"
         inkscape:connector-curvature="0" /></clipPath><linearGradient
       id="linearGradient158"
       spreadMethod="pad"
       gradientTransform="matrix(-1.2e-6,-27.754503,-27.754503,1.2e-6,378.07422,397.08594)"
       gradientUnits="userSpaceOnUse"
       y2="0"
       x2="1"
       y1="0"
       x1="0"><stop
         id="stop160"
         offset="0"
         style="stop-opacity:1;stop-color:#e8e8e8" /><stop
         id="stop162"
         offset="1"
         style="stop-opacity:1;stop-color:#d4d4d4" /></linearGradient><clipPath
       id="clipPath170"
       clipPathUnits="userSpaceOnUse"><path
         id="path172"
         d="M 0,500 500,500 500,0 0,0 0,500 Z"
         inkscape:connector-curvature="0" /></clipPath><clipPath
       id="clipPath262"
       clipPathUnits="userSpaceOnUse"><path
         id="path264"
         d="m 38.812,254.944 c 0.017,-1.064 0.069,-1.938 0.177,-2.39 l 0,0 c 0.344,-1.437 0.687,-1.125 0.687,-3.468 l 0,0 0,-5.812 c 0,-0.657 0.813,-1.094 0.876,-2.219 l 0,0 c 0.062,-1.125 0,-5.094 0,-6.094 l 0,0 c 0,-1 0.896,-4.042 2.499,-4.042 l 0,0 29.147,0 c 1.708,0 5.792,-3.833 11.791,-3.833 l 0,0 103.584,0 c 3.083,0 24.526,4.772 26,4.772 l 0,0 c 1.473,0 11.333,4.144 12.917,11.893 l 0,0 c 0.635,3.11 0.174,7.04 -1.097,11.193 l 0,0 -186.581,0 z"
         inkscape:connector-curvature="0" /></clipPath><linearGradient
       id="linearGradient270"
       spreadMethod="pad"
       gradientTransform="matrix(-9e-7,-19.878622,-19.878622,9e-7,132.79248,259.00244)"
       gradientUnits="userSpaceOnUse"
       y2="0"
       x2="1"
       y1="0"
       x1="0"><stop
         id="stop272"
         offset="0"
         style="stop-opacity:1;stop-color:#8eeb8a" /><stop
         id="stop274"
         offset="1"
         style="stop-opacity:1;stop-color:#7dcf7a" /></linearGradient><clipPath
       id="clipPath282"
       clipPathUnits="userSpaceOnUse"><path
         id="path284"
         d="M 0,500 500,500 500,0 0,0 0,500 Z"
         inkscape:connector-curvature="0" /></clipPath><clipPath
       id="clipPath374"
       clipPathUnits="userSpaceOnUse"><path
         id="path376"
         d="m 300.5,255.036 c -4.33,-3.79 -9.557,-10.991 -10.76,-23.178 l 0,0 12.562,0 c 4.188,0 17,-4.147 23.875,-4.147 l 0,0 116.812,0 c 3.917,0 10.001,3.375 13.584,3.375 l 0,0 10.166,0 c 1.084,0 1.917,1.916 1.583,5.333 l 0,0 c -0.215,2.207 -3.632,10.188 -9.258,18.617 l 0,0 -158.564,0 z"
         inkscape:connector-curvature="0" /></clipPath><linearGradient
       id="linearGradient382"
       spreadMethod="pad"
       gradientTransform="matrix(-1e-6,-23.583189,-23.583189,1e-6,379.06836,255.60254)"
       gradientUnits="userSpaceOnUse"
       y2="0"
       x2="1"
       y1="0"
       x1="0"><stop
         id="stop384"
         offset="0"
         style="stop-opacity:1;stop-color:#bce1ff" /><stop
         id="stop386"
         offset="1"
         style="stop-opacity:1;stop-color:#9dd4ff" /></linearGradient><clipPath
       id="clipPath394"
       clipPathUnits="userSpaceOnUse"><path
         id="path396"
         d="M 0,500 500,500 500,0 0,0 0,500 Z"
         inkscape:connector-curvature="0" /></clipPath><clipPath
       id="clipPath492"
       clipPathUnits="userSpaceOnUse"><path
         id="path494"
         d="m 35.321,108.547 c -1.249,-0.924 -4.232,-1.382 -4.915,-3.127 l 0,0 c -0.983,-2.515 0.917,-13.751 2.167,-15.418 l 0,0 c 1.25,-1.666 6.896,-3.582 9.833,-3.582 l 0,0 9.583,0 c 1.875,0 3.501,2.54 8.625,2.54 l 0,0 132.126,0 c 13.625,0 29.666,2.459 30.666,2.917 l 0,0 c 1,0.458 6.709,5.709 7,7.043 l 0,0 c 0.292,1.332 0.542,10.723 0.292,12.236 l 0,0 c -0.25,1.514 -5.292,3.846 -5.292,3.846 l 0,0 c 0,0 -0.341,0.646 -0.981,1.7 l 0,0 -189.104,-8.155 z"
         inkscape:connector-curvature="0" /></clipPath><linearGradient
       id="linearGradient500"
       spreadMethod="pad"
       gradientTransform="matrix(2.3062873,-27.843916,-27.843916,-2.3062873,129.23291,120.97266)"
       gradientUnits="userSpaceOnUse"
       y2="0"
       x2="1"
       y1="0"
       x1="0"><stop
         id="stop502"
         offset="0"
         style="stop-opacity:1;stop-color:#707070" /><stop
         id="stop504"
         offset="1"
         style="stop-opacity:1;stop-color:#616161" /></linearGradient><clipPath
       id="clipPath512"
       clipPathUnits="userSpaceOnUse"><path
         id="path514"
         d="M 0,500 500,500 500,0 0,0 0,500 Z"
         inkscape:connector-curvature="0" /></clipPath><clipPath
       id="clipPath578"
       clipPathUnits="userSpaceOnUse"><path
         id="path580"
         d="m 287.407,115.813 c -0.026,-0.049 -0.063,-0.096 -0.084,-0.143 l 0,0 c -0.417,-1 -1.398,-12.251 0.968,-18.668 l 0,0 c 0,0 5.775,-6.291 11.82,-6.291 l 0,0 137.545,0 c 5.5,0 28.209,3.5 29.959,4.625 l 0,0 c 1.75,1.125 3.625,4.25 3.875,5.5 l 0,0 c 0.25,1.25 0.875,8.75 0.75,10.375 l 0,0 c -0.125,1.625 -2.875,4.5 -2.875,7.125 l 0,0 0,9.882 -181.958,-12.405 z"
         inkscape:connector-curvature="0" /></clipPath><linearGradient
       id="linearGradient586"
       spreadMethod="pad"
       gradientTransform="matrix(-9e-7,-19.90468,-19.90468,9e-7,379.50977,129.5957)"
       gradientUnits="userSpaceOnUse"
       y2="0"
       x2="1"
       y1="0"
       x1="0"><stop
         id="stop588"
         offset="0"
         style="stop-opacity:1;stop-color:#ee4c76" /><stop
         id="stop590"
         offset="1"
         style="stop-opacity:1;stop-color:#ee3061" /></linearGradient><clipPath
       id="clipPath598"
       clipPathUnits="userSpaceOnUse"><path
         id="path600"
         d="M 0,500 500,500 500,0 0,0 0,500 Z"
         inkscape:connector-curvature="0" /></clipPath><clipPath
       id="clipPath662"
       clipPathUnits="userSpaceOnUse"><path
         id="path664"
         d="M 0,500 500,500 500,0 0,0 0,500 Z"
         inkscape:connector-curvature="0" /></clipPath></defs><g
     transform="matrix(1.25,0,0,-1.25,-40,-137)"
     id="g10"><g
       id="g166"
       transform="translate(-1.4754679,-411.15303)"><g
         clip-path="url(#clipPath170)"
         id="g168"><g
           transform="translate(285.2637,381.3989)"
           id="g218"><path
             id="path220"
             style="fill:#ffffff;fill-opacity:1;fill-rule:nonzero;stroke:none"
             d="M 0,0 C 1.187,-1.378 4.318,-0.583 6.994,1.777 9.67,4.137 10.877,7.166 9.689,8.545 8.503,9.923 5.372,9.128 2.695,6.768 0.021,4.409 -1.187,1.378 0,0"
             inkscape:connector-curvature="0" /></g><g
           transform="translate(219.9268,265.0234)"
           id="g242"><path
             id="path244"
             style="fill:#6ab068;fill-opacity:1;fill-rule:nonzero;stroke:none"
             d="M 0,0 C 0,0 7.5,-3.875 7.562,-4.5 7.625,-5.125 3.875,-5.875 2.063,-6 L 0,0 Z"
             inkscape:connector-curvature="0" /></g><g
           transform="translate(45.8643,254.7734)"
           id="g246"><path
             id="path248"
             style="fill:#d4d4d4;fill-opacity:1;fill-rule:nonzero;stroke:none"
             d="m 0,0 c 0,-1.657 -1.343,-3 -3,-3 l -3.25,0 c -1.657,0 -3,1.343 -3,3 l 0,5.312 c 0,1.657 1.343,3.001 3,3.001 l 3.25,0 c 1.657,0 3,-1.344 3,-3.001 L 0,0 Z"
             inkscape:connector-curvature="0" /></g><g
           transform="translate(84.7471,270.8525)"
           id="g250"><path
             id="path252"
             style="fill:#545454;fill-opacity:1;fill-rule:nonzero;stroke:none"
             d="M 0,0 C 0,0 -0.437,1.559 -2.625,1.436 -4.812,1.312 -17.687,-0.125 -22.5,-0.937 -27.312,-1.75 -39.75,-4.031 -41,-4.312 c -1.25,-0.282 -2.281,-1.563 -2.281,-1.563 L 0,0 Z"
             inkscape:connector-curvature="0" /></g><g
           transform="translate(43.0313,265.5649)"
           id="g254"><path
             id="path256"
             style="fill:#7dcf7a;fill-opacity:1;fill-rule:nonzero;stroke:none"
             d="m 0,0 c -0.894,-0.17 -3.917,-0.854 -4.042,-3.354 -0.125,-2.5 -0.344,-8.219 0,-9.656 0.344,-1.438 0.688,-1.125 0.688,-3.469 l 0,-5.813 c 0,-0.656 0.812,-1.093 0.875,-2.218 0.062,-1.125 0,-5.094 0,-6.094 0,-1 0.896,-4.042 2.5,-4.042 l 29.146,0 c 1.708,0 5.791,-3.833 11.791,-3.833 l 103.584,0 c 3.083,0 24.526,4.772 26,4.772 1.473,0 11.333,4.144 12.916,11.894 1.584,7.75 -3.552,20.584 -11.443,29.334 -7.89,8.75 -17.307,21.25 -17.807,21.416 l -93.75,0 c -0.875,0 -1.937,-0.385 -2.656,-1.479 C 57.083,26.365 44.667,9.313 42.958,7.604 42.438,7.083 41.521,6.146 40.364,5.771 39.208,5.396 25.312,4.812 0,0"
             inkscape:connector-curvature="0" /></g></g></g><g
       id="g258"
       transform="translate(-1.4754679,-411.15303)"><g
         clip-path="url(#clipPath262)"
         id="g260"><g
           id="g266"><g
             id="g268"><path
               id="path276"
               style="fill:url(#linearGradient270);stroke:none"
               d="m 38.812,254.944 c 0.017,-1.064 0.069,-1.938 0.177,-2.39 l 0,0 c 0.344,-1.437 0.687,-1.125 0.687,-3.468 l 0,0 0,-5.812 c 0,-0.657 0.813,-1.094 0.876,-2.219 l 0,0 c 0.062,-1.125 0,-5.094 0,-6.094 l 0,0 c 0,-1 0.896,-4.042 2.499,-4.042 l 0,0 29.147,0 c 1.708,0 5.792,-3.833 11.791,-3.833 l 0,0 103.584,0 c 3.083,0 24.526,4.772 26,4.772 l 0,0 c 1.473,0 11.333,4.144 12.917,11.893 l 0,0 c 0.635,3.11 0.174,7.04 -1.097,11.193 l 0,0 -186.581,0 z"
               inkscape:connector-curvature="0" /></g></g></g></g><g
       id="g278"><g
         clip-path="url(#clipPath282)"
         id="g280"
         transform="translate(-1.4754679,-411.15303)"><g
           transform="translate(214.0864,258.2417)"
           id="g286"><path
             id="path288"
             style="fill:#64a662;fill-opacity:1;fill-rule:nonzero;stroke:none"
             d="m 0,0 -0.31,0.64 c -1.46,3.033 -3.749,5.301 -5.768,7.302 -1.351,1.337 -2.517,2.493 -3.112,3.584 -1.558,2.856 -11.868,20.152 -12.945,21.888 -1.203,1.939 -2.846,2.097 -4.712,2.097 l -75.834,0 -0.199,0.002 c -1.013,0.012 -3.13,0.047 -4.872,-2.182 -1.655,-2.116 -15.097,-21.389 -16.529,-24.336 -1.43,-2.945 -1.524,-6.182 -1.566,-11.649 -0.006,-0.732 -0.027,-1.64 -0.05,-2.678 -0.145,-6.373 -0.414,-18.236 2.201,-23.548 l 0.448,0.22 c -2.561,5.203 -2.293,16.987 -2.149,23.317 0.023,1.041 0.044,1.951 0.05,2.685 0.042,5.395 0.133,8.586 1.516,11.434 1.424,2.932 14.822,22.137 16.472,24.247 1.59,2.033 3.54,2.003 4.471,1.99 l 36.999,-10e-4 0,-23.001 c 0,-0.551 0.55,-1.578 1.246,-2.879 0.874,-1.634 1.963,-3.667 1.963,-4.913 l 0,-32.988 0.5,0 0,32.988 c 0,1.371 -1.074,3.378 -2.022,5.149 -0.611,1.14 -1.187,2.217 -1.187,2.643 l 0,23.001 38.542,-10e-4 c 1.775,0 3.218,-0.137 4.287,-1.861 1.047,-1.687 11.44,-19.129 12.931,-21.863 0.63,-1.156 1.82,-2.335 3.199,-3.701 1.991,-1.972 4.247,-4.208 5.67,-7.163 l 0.31,-0.641 C 2.032,-5.345 7.844,-17.35 2.854,-22.185 l 0.348,-0.359 C 8.452,-17.458 2.744,-5.667 0,0"
             inkscape:connector-curvature="0" /></g><g
           transform="translate(102.5669,294.356)"
           id="g290"><path
             id="path292"
             style="fill:#d4d4d4;fill-opacity:1;fill-rule:nonzero;stroke:none"
             d="M 0,0 C 0,0 3.256,3.563 12.672,4.313 22.089,5.063 57.585,6.77 75.256,5.146 91.36,3.667 93.45,1.645 94.843,0 c 0,0 -0.483,-0.208 -1.608,-0.208 l -91.938,0 C 0.547,-0.208 0,0 0,0"
             inkscape:connector-curvature="0" /></g><g
           transform="translate(213.5728,231.8584)"
           id="g294"><path
             id="path296"
             style="fill:#64a662;fill-opacity:1;fill-rule:nonzero;stroke:none"
             d="M 0,0 C 0.559,0 2.324,0.599 4.385,1.76 3.496,11.429 -4.627,19 -14.526,19 c -10.494,0 -19,-8.505 -19,-19 0,-1.651 0.233,-3.245 0.628,-4.772 l 6.898,0 C -22.917,-4.772 -1.474,0 0,0"
             inkscape:connector-curvature="0" /></g><g
           transform="translate(82.4419,227.1797)"
           id="g298"><path
             id="path300"
             style="fill:#64a662;fill-opacity:1;fill-rule:nonzero;stroke:none"
             d="m 0,0 c 0.38,1.5 0.604,3.062 0.604,4.679 0,10.495 -8.506,19 -19,19 -10.493,0 -19,-8.505 -19,-19 0,-0.318 0.032,-0.626 0.048,-0.94 l 27.104,0 C -8.688,3.739 -5.154,0.565 0,0"
             inkscape:connector-curvature="0" /></g><g
           transform="translate(80.0464,231.8584)"
           id="g302"><path
             id="path304"
             style="fill:#404040;fill-opacity:1;fill-rule:nonzero;stroke:none"
             d="m 0,0 c 0,-8.837 -7.164,-16 -16,-16 -8.836,0 -16,7.163 -16,16 0,8.837 7.164,16 16,16 C -7.164,16 0,8.837 0,0"
             inkscape:connector-curvature="0" /></g><g
           transform="translate(74.9814,231.8584)"
           id="g306"><path
             id="path308"
             style="fill:#eeeeee;fill-opacity:1;fill-rule:nonzero;stroke:none"
             d="m 0,0 c 0,-6.039 -4.896,-10.935 -10.935,-10.935 -6.04,0 -10.935,4.896 -10.935,10.935 0,6.04 4.895,10.935 10.935,10.935 C -4.896,10.935 0,6.04 0,0"
             inkscape:connector-curvature="0" /></g><g
           transform="translate(215.0464,231.8584)"
           id="g310"><path
             id="path312"
             style="fill:#404040;fill-opacity:1;fill-rule:nonzero;stroke:none"
             d="m 0,0 c 0,-8.837 -7.164,-16 -16,-16 -8.836,0 -16,7.163 -16,16 0,8.837 7.164,16 16,16 C -7.164,16 0,8.837 0,0"
             inkscape:connector-curvature="0" /></g><g
           transform="translate(209.9814,231.8584)"
           id="g314"><path
             id="path316"
             style="fill:#eeeeee;fill-opacity:1;fill-rule:nonzero;stroke:none"
             d="m 0,0 c 0,-6.039 -4.896,-10.935 -10.935,-10.935 -6.04,0 -10.935,4.896 -10.935,10.935 0,6.04 4.895,10.935 10.935,10.935 C -4.896,10.935 0,6.04 0,0"
             inkscape:connector-curvature="0" /></g><g
           transform="translate(175.9893,231.8584)"
           id="g318"><path
             id="path320"
             style="fill:#404040;fill-opacity:1;fill-rule:nonzero;stroke:none"
             d="m 0,0 -87.167,0 c -1.656,0 -3,-1.343 -3,-3 l 0,-1.772 L 3,-4.772 3,-3 C 3,-1.343 1.657,0 0,0"
             inkscape:connector-curvature="0" /></g><g
           transform="translate(112.6768,292.7734)"
           id="g322"><path
             id="path324"
             style="fill:#545454;fill-opacity:1;fill-rule:nonzero;stroke:none"
             d="m 0,0 c -1.375,0 -3.875,0.125 -5.5,-2.188 -1.625,-2.312 -12.062,-17.249 -12.687,-18.374 -0.625,-1.125 -1.063,-2.563 1.562,-2.563 l 48.25,0 c 1.813,0 2.75,0.188 2.75,1.625 l 0,18 c 0,1.187 -0.687,3.501 -2.75,3.501 C 29.562,0.001 0,0 0,0"
             inkscape:connector-curvature="0" /></g><g
           transform="translate(149.9883,271.5024)"
           id="g326"><path
             id="path328"
             style="fill:#545454;fill-opacity:1;fill-rule:nonzero;stroke:none"
             d="m 0,0 c 0,-0.875 0.376,-1.854 2.043,-1.854 l 42.125,0 c 1.541,0 4.292,1.312 4.125,3.979 -0.167,2.667 -7.292,14.209 -8.209,15.542 -0.917,1.333 -2.375,3.605 -5.667,3.605 l -30.916,0 C 2.293,21.272 0,20.75 0,18.333 L 0,0 Z"
             inkscape:connector-curvature="0" /></g><g
           transform="translate(216.083,271.8774)"
           id="g330"><path
             id="path332"
             style="fill:#545454;fill-opacity:1;fill-rule:nonzero;stroke:none"
             d="m 0,0 c -0.342,0.408 -0.683,0.816 -1.037,1.208 -5.947,6.596 -12.761,15.32 -15.97,19.289 -1.112,-0.312 -1.299,-1.495 -0.337,-2.914 L -7.457,3 C -6.333,1.343 -4.08,0 -2.423,0 L 0,0 Z"
             inkscape:connector-curvature="0" /></g><g
           transform="translate(103.082,293.1313)"
           id="g334"><path
             id="path336"
             style="fill:#545454;fill-opacity:1;fill-rule:nonzero;stroke:none"
             d="m 0,0 c -0.587,0 -1.308,0.031 -2.105,0.083 -0.048,-0.064 -0.099,-0.122 -0.144,-0.191 -0.719,-1.094 -13.135,-18.145 -14.844,-19.854 -0.017,-0.018 -0.044,-0.043 -0.062,-0.062 0.619,-0.452 1.169,-0.854 1.579,-1.154 0.493,-0.361 1.185,-0.253 1.546,0.24 L 0.241,-1.545 C 0.601,-1.053 0.61,0 0,0"
             inkscape:connector-curvature="0" /></g><g
           transform="translate(47.7168,236.9775)"
           id="g338"><path
             id="path340"
             style="fill:#404040;fill-opacity:1;fill-rule:nonzero;stroke:none"
             d="m 0,0 c 0,-1.684 -1.364,-3.048 -3.047,-3.048 l -5.865,0 c -1.684,0 -3.048,1.364 -3.048,3.048 0,1.683 1.364,3.048 3.048,3.048 l 5.865,0 C -1.364,3.048 0,1.683 0,0"
             inkscape:connector-curvature="0" /></g><g
           transform="translate(230.2329,235.5908)"
           id="g342"><path
             id="path344"
             style="fill:#404040;fill-opacity:1;fill-rule:nonzero;stroke:none"
             d="m 0,0 c 0,-1.684 -1.364,-3.048 -3.047,-3.048 l -7.389,0 c -1.683,0 -3.047,1.364 -3.047,3.048 0,1.683 1.364,3.048 3.047,3.048 l 7.389,0 C -1.364,3.048 0,1.683 0,0"
             inkscape:connector-curvature="0" /></g><g
           transform="translate(225.1875,252.0723)"
           id="g346"><path
             id="path348"
             style="fill:#ff8b00;fill-opacity:1;fill-rule:nonzero;stroke:none"
             d="m 0,0 c 0.33,-1.271 -0.432,-2.567 -1.702,-2.897 -1.271,-0.33 -2.567,0.432 -2.897,1.702 l -0.959,3.688 c -0.33,1.271 0.433,2.568 1.703,2.897 1.27,0.33 2.567,-0.432 2.897,-1.702 L 0,0 Z"
             inkscape:connector-curvature="0" /></g><g
           transform="translate(145.3643,262.5234)"
           id="g350"><path
             id="path352"
             style="fill:#64a662;fill-opacity:1;fill-rule:nonzero;stroke:none"
             d="m 0,0 c 0,-2.002 -1.623,-3.625 -3.625,-3.625 -2.002,0 -3.625,1.623 -3.625,3.625 0,2.002 1.623,3.625 3.625,3.625 C -1.623,3.625 0,2.002 0,0"
             inkscape:connector-curvature="0" /></g><g
           transform="translate(148.1143,262.5234)"
           id="g354"><path
             id="path356"
             style="fill:#8ae486;fill-opacity:1;fill-rule:nonzero;stroke:none"
             d="m 0,0 c 0,-0.621 -2.854,-1.125 -6.375,-1.125 -3.521,0 -6.375,0.504 -6.375,1.125 0,0.621 2.854,1.125 6.375,1.125 C -2.854,1.125 0,0.621 0,0"
             inkscape:connector-curvature="0" /></g><g
           transform="translate(297.6143,253.9297)"
           id="g362" /></g></g><g
       id="g390" /></g></svg>